<svg width="32" height="32" viewBox="0 0 32 32" fill="none" xmlns="http://www.w3.org/2000/svg">
<rect width="32" height="32" fill="black"/>
<path d="M19.656 1.44397C19.7874 1.44374 19.9176 1.4694 20.0391 1.51951C20.1605 1.56961 20.271 1.64317 20.364 1.73597L30.264 11.636C30.4515 11.8235 30.5568 12.0778 30.5568 12.343C30.5568 12.6081 30.4515 12.8624 30.264 13.05C29.304 14.01 28.12 14.226 27.258 14.226C26.904 14.226 26.588 14.19 26.338 14.148L20.07 20.416C20.235 21.0808 20.3421 21.7587 20.39 22.442C20.482 23.846 20.326 25.816 18.95 27.192C18.7625 27.3794 18.5082 27.4848 18.243 27.4848C17.9778 27.4848 17.7235 27.3794 17.536 27.192L11.878 21.536L5.514 27.9C5.124 28.29 3.076 29.704 2.686 29.314C2.296 28.924 3.71 26.874 4.1 26.486L10.464 20.122L4.808 14.464C4.62053 14.2764 4.51521 14.0221 4.51521 13.757C4.51521 13.4918 4.62053 13.2375 4.808 13.05C6.184 11.674 8.154 11.516 9.558 11.61C10.2413 11.6579 10.9192 11.7649 11.584 11.93L17.852 5.66397C17.7997 5.3594 17.7729 5.051 17.772 4.74197C17.772 3.88197 17.988 2.69797 18.95 1.73597C19.1374 1.54903 19.3913 1.44403 19.656 1.44397V1.44397Z" fill="white"/>
</svg>
