<svg width="100" height="100" viewBox="0 0 100 100" fill="none" xmlns="http://www.w3.org/2000/svg">
<g clip-path="url(#clip0_41_59)">
<path d="M-10 -10H110V110H-10V-10Z" fill="#C4C4C4" fill-opacity="0.5"/>
<path d="M23.0667 91.1917C23.7407 91.5422 24.4975 91.7027 25.2558 91.6557C26.0141 91.6087 26.7452 91.3561 27.3708 90.925L81.5375 53.425C82.091 53.0415 82.5433 52.5296 82.8557 51.9331C83.1681 51.3366 83.3313 50.6733 83.3313 50C83.3313 49.3266 83.1681 48.6633 82.8557 48.0668C82.5433 47.4703 82.091 46.9584 81.5375 46.575L27.3708 9.07498C26.7457 8.64245 26.0142 8.38917 25.2555 8.34256C24.4967 8.29595 23.7397 8.45779 23.0664 8.81056C22.393 9.16333 21.829 9.69358 21.4354 10.3439C21.0418 10.9942 20.8336 11.7398 20.8333 12.5V87.5C20.8332 88.2606 21.0413 89.0067 21.4349 89.6574C21.8286 90.3082 22.3929 90.8387 23.0667 91.1917Z" fill="black"/>
</g>
<defs>
<clipPath id="clip0_41_59">
<rect width="100" height="100" fill="white"/>
</clipPath>
</defs>
</svg>
