<svg width="100" height="100" viewBox="0 0 100 100" fill="none" xmlns="http://www.w3.org/2000/svg">
<g clip-path="url(#clip0_41_56)">
<path d="M-10 -10H110V110H-10V-10Z" fill="#C4C4C4" fill-opacity="0.5"/>
<path d="M18.4625 53.425L72.6292 90.925C73.2543 91.3575 73.9858 91.6108 74.7445 91.6574C75.5033 91.704 76.2603 91.5422 76.9336 91.1894C77.607 90.8367 78.171 90.3064 78.5646 89.6561C78.9582 89.0058 79.1664 88.2602 79.1667 87.5V12.5C79.1672 11.7395 78.9595 10.9933 78.5662 10.3424C78.1729 9.6915 77.609 9.16064 76.9355 8.80738C76.262 8.45411 75.5047 8.2919 74.7456 8.33834C73.9865 8.38478 73.2546 8.6381 72.6292 9.07083L18.4625 46.5708C17.9107 46.956 17.46 47.4687 17.1488 48.0653C16.8376 48.662 16.6751 49.325 16.6751 49.9979C16.6751 50.6709 16.8376 51.3338 17.1488 51.9305C17.46 52.5272 17.9107 53.0399 18.4625 53.425V53.425Z" fill="black"/>
</g>
<defs>
<clipPath id="clip0_41_56">
<rect width="100" height="100" fill="white"/>
</clipPath>
</defs>
</svg>
