<svg width="32" height="32" viewBox="0 0 32 32" fill="none" xmlns="http://www.w3.org/2000/svg">
<rect width="32" height="32" fill="black"/>
<path d="M5.2 3.20001C4.096 3.20001 3.2 4.09601 3.2 5.20001V22C3.2 23.104 4.096 24 5.2 24H12V21.2144C12 20.1216 12.48 19.0832 13.312 18.3728L18.864 13.6384C19.4108 13.1714 20.0853 12.8793 20.8 12.8V11.6C20.8 10.496 19.904 9.60001 18.8 9.60001H16.4C16.2939 9.60001 16.1922 9.55787 16.1172 9.48286C16.0421 9.40784 16 9.3061 16 9.20001V5.20001C16 4.09601 15.104 3.20001 14 3.20001H5.2ZM7.6 8.80001C7.28174 8.80001 6.97652 8.67358 6.75147 8.44854C6.52643 8.2235 6.4 7.91827 6.4 7.60001C6.4 7.28175 6.52643 6.97653 6.75147 6.75148C6.97652 6.52644 7.28174 6.40001 7.6 6.40001C7.91826 6.40001 8.22349 6.52644 8.44853 6.75148C8.67357 6.97653 8.8 7.28175 8.8 7.60001C8.8 7.91827 8.67357 8.2235 8.44853 8.44854C8.22349 8.67358 7.91826 8.80001 7.6 8.80001ZM8.8 11.2C8.8 11.5183 8.67357 11.8235 8.44853 12.0485C8.22349 12.2736 7.91826 12.4 7.6 12.4C7.28174 12.4 6.97652 12.2736 6.75147 12.0485C6.52643 11.8235 6.4 11.5183 6.4 11.2C6.4 10.8818 6.52643 10.5765 6.75147 10.3515C6.97652 10.1264 7.28174 10 7.6 10C7.91826 10 8.22349 10.1264 8.44853 10.3515C8.67357 10.5765 8.8 10.8818 8.8 11.2V11.2ZM7.6 16C7.28174 16 6.97652 15.8736 6.75147 15.6485C6.52643 15.4235 6.4 15.1183 6.4 14.8C6.4 14.4818 6.52643 14.1765 6.75147 13.9515C6.97652 13.7264 7.28174 13.6 7.6 13.6C7.91826 13.6 8.22349 13.7264 8.44853 13.9515C8.67357 14.1765 8.8 14.4818 8.8 14.8C8.8 15.1183 8.67357 15.4235 8.44853 15.6485C8.22349 15.8736 7.91826 16 7.6 16ZM12.8 7.60001C12.8 7.91827 12.6736 8.2235 12.4485 8.44854C12.2235 8.67358 11.9183 8.80001 11.6 8.80001C11.2817 8.80001 10.9765 8.67358 10.7515 8.44854C10.5264 8.2235 10.4 7.91827 10.4 7.60001C10.4 7.28175 10.5264 6.97653 10.7515 6.75148C10.9765 6.52644 11.2817 6.40001 11.6 6.40001C11.9183 6.40001 12.2235 6.52644 12.4485 6.75148C12.6736 6.97653 12.8 7.28175 12.8 7.60001ZM11.6 12.4C11.2817 12.4 10.9765 12.2736 10.7515 12.0485C10.5264 11.8235 10.4 11.5183 10.4 11.2C10.4 10.8818 10.5264 10.5765 10.7515 10.3515C10.9765 10.1264 11.2817 10 11.6 10C11.9183 10 12.2235 10.1264 12.4485 10.3515C12.6736 10.5765 12.8 10.8818 12.8 11.2C12.8 11.5183 12.6736 11.8235 12.4485 12.0485C12.2235 12.2736 11.9183 12.4 11.6 12.4V12.4ZM12.8 14.8C12.8 15.1183 12.6736 15.4235 12.4485 15.6485C12.2235 15.8736 11.9183 16 11.6 16C11.2817 16 10.9765 15.8736 10.7515 15.6485C10.5264 15.4235 10.4 15.1183 10.4 14.8C10.4 14.4818 10.5264 14.1765 10.7515 13.9515C10.9765 13.7264 11.2817 13.6 11.6 13.6C11.9183 13.6 12.2235 13.7264 12.4485 13.9515C12.6736 14.1765 12.8 14.4818 12.8 14.8ZM22.4976 14.8544C22.1357 14.5458 21.6756 14.3763 21.2 14.3763C20.7244 14.3763 20.2643 14.5458 19.9024 14.8544L14.3504 19.5904C14.1154 19.7904 13.9266 20.0391 13.797 20.3192C13.6675 20.5993 13.6003 20.9042 13.6 21.2128V28.5984C13.6 29.5936 14.4064 30.3984 15.4 30.3984H18.2C19.1936 30.3984 20 29.5936 20 28.5984V25.8C20 25.6896 20.0896 25.6 20.2 25.6H22.2C22.3104 25.6 22.4 25.6896 22.4 25.8V28.6C22.4 29.592 23.2064 30.3984 24.2 30.3984H27C27.9936 30.3984 28.8 29.5936 28.8 28.5984V21.2128C28.8 20.5888 28.5264 19.9952 28.0512 19.5904L22.4976 14.8544V14.8544ZM20.9408 16.072C21.0131 16.0105 21.105 15.9767 21.2 15.9767C21.295 15.9767 21.3869 16.0105 21.4592 16.072L27.0112 20.808C27.07 20.8579 27.1173 20.9199 27.1499 20.9897C27.1825 21.0596 27.1996 21.1357 27.2 21.2128V28.5984C27.2 28.7104 27.1104 28.7984 27 28.7984H24.2C24.147 28.7984 24.0961 28.7773 24.0586 28.7398C24.0211 28.7023 24 28.6515 24 28.5984V25.8C24 24.8064 23.1936 24 22.2 24H20.2C19.2064 24 18.4 24.8064 18.4 25.8V28.6C18.3996 28.6528 18.3783 28.7032 18.3409 28.7404C18.3034 28.7776 18.2528 28.7984 18.2 28.7984H15.4C15.347 28.7984 15.2961 28.7773 15.2586 28.7398C15.2211 28.7023 15.2 28.6515 15.2 28.5984V21.2128C15.2 21.0576 15.2688 20.9088 15.3872 20.808L20.9392 16.072H20.9408Z" fill="white"/>
</svg>
