<svg width="15" height="15" viewBox="0 0 15 15" fill="none" xmlns="http://www.w3.org/2000/svg">
<path d="M7.5 0C11.6423 0 15 3.35775 15 7.5C15 11.6423 11.6423 15 7.5 15C3.35775 15 0 11.6423 0 7.5C0 3.35775 3.35775 0 7.5 0ZM7.5 1.04625C5.78836 1.04625 4.14682 1.7262 2.93651 2.93651C1.7262 4.14682 1.04625 5.78836 1.04625 7.5C1.04625 9.21164 1.7262 10.8532 2.93651 12.0635C4.14682 13.2738 5.78836 13.9537 7.5 13.9537C9.21164 13.9537 10.8532 13.2738 12.0635 12.0635C13.2738 10.8532 13.9537 9.21164 13.9537 7.5C13.9537 5.78836 13.2738 4.14682 12.0635 2.93651C10.8532 1.7262 9.21164 1.04625 7.5 1.04625V1.04625ZM7.62 3.48825C8.43 3.48825 9.20775 3.7155 9.87225 4.13625C9.98299 4.21322 10.0598 4.32997 10.0865 4.46215C10.1133 4.59433 10.0881 4.73174 10.016 4.84575C9.94397 4.95976 9.83071 5.04157 9.69983 5.07413C9.56895 5.10668 9.43056 5.08747 9.3135 5.0205C8.80667 4.70154 8.21959 4.53324 7.62075 4.53525C5.91225 4.53525 4.53525 5.8665 4.53525 7.5C4.53525 9.1335 5.91225 10.4648 7.62075 10.4648C8.2215 10.4648 8.796 10.2998 9.28875 9.9945C9.3472 9.9583 9.41222 9.93398 9.48007 9.92291C9.54793 9.91184 9.6173 9.91424 9.68423 9.92998C9.75116 9.94572 9.81433 9.97449 9.87014 10.0146C9.92595 10.0548 9.9733 10.1055 10.0095 10.164C10.0457 10.2225 10.07 10.2875 10.0811 10.3553C10.0922 10.4232 10.0898 10.4926 10.074 10.5595C10.0583 10.6264 10.0295 10.6896 9.98936 10.7454C9.94921 10.8012 9.89845 10.8486 9.84 10.8847C9.1729 11.2966 8.40397 11.5137 7.62 11.5118C5.34225 11.5118 3.48825 9.71925 3.48825 7.5C3.48825 5.28 5.34225 3.48825 7.62075 3.48825H7.62Z" fill="black"/>
</svg>
